# xmcd CD database generated by RipIT
#
# Track frame offsets:
# 150
# 20517
# 36693
# 57192
# 75012
# 94295
# 108641
# 125080
# 142808
# 158871
#
# Disc length: 2410 seconds
#
# Revision: 4
# Processed by: cddbd v1.5.2PL0 Copyright (c) Steve Scherf et al.
# Submitted via: RipIT 3.9.0 www.suwald.com/ripit/ripit.html on 2016-10-16 at 08:53
#
DISCID=8109680a
DTITLE=Blues Pills - Lady in Gold
DYEAR=2016
DGENRE=Soul
TTITLE0=Lady In Gold
TTITLE1=Little Boy Preacher
TTITLE2=Burned Out
TTITLE3=I Felt A Change
TTITLE4=Come So Long
TTITLE5=Bad Talkers
TTITLE6=You Gotta Try
TTITLE7=Won't Go Back
TTITLE8=Rejection
TTITLE9=Elements And Things
EXTD=
EXTT0=
EXTT1=
EXTT2=
EXTT3=
EXTT4=
EXTT5=
EXTT6=
EXTT7=
EXTT8=
EXTT9=
PLAYORDER=
